<?xml version="1.0" encoding="utf-8"?>
<!-- Generator: Adobe Illustrator 27.5.0, SVG Export Plug-In . SVG Version: 6.00 Build 0)  -->
<svg version="1.1" id="Layer_1" xmlns="http://www.w3.org/2000/svg" xmlns:xlink="http://www.w3.org/1999/xlink" x="0px" y="0px"
	 viewBox="0 0 512 512" style="enable-background:new 0 0 512 512;" xml:space="preserve">
<linearGradient id="SVGID_1_" gradientUnits="userSpaceOnUse" x1="86.2944" y1="652.2944" x2="425.7056" y2="991.7056" gradientTransform="matrix(1 0 0 1 0 -566)">
	<stop  offset="0" style="stop-color:#009FFF"/>
	<stop  offset="1" style="stop-color:#EC2F4B"/>
</linearGradient>
<circle style="fill:url(#SVGID_1_);" cx="256" cy="256" r="240"/>
<g id="_x32_7611_-_Brush_Pen">
	<g>
		<path style="fill:#FFFFFF;" d="M203.9,317.8c-6-5.8-12.2-11.9-18.4-18.4c-10.4-0.5-22.3-0.2-31.3,4.1c7.5,7.5,13.1,16,16.7,25.2
			c3.2,8.1,4,14.8,4.7,20.7c0.8,6.2,1.4,11.6,4.7,17.8c4,7.5,10.6,13.8,19.8,18.8c9.2-7.7,20.7-21.9,24.9-46.9L203.9,317.8
			L203.9,317.8z"/>
		<path style="fill:#FFFFFF;" d="M170.9,372.2c-4.3-8-5.1-14.9-5.9-21.6c-0.7-5.5-1.4-11.2-4.1-18.1c-3.2-8.2-8.4-15.8-15.4-22.5
			c-4.5,5.3-5.8,10.9-7.5,18.6c-1.3,5.9-2.8,12.6-6.3,20.3C127,359.4,117,374.2,96,387.5c32.1,17.7,68.5,19.6,94.3,5.1
			C181.7,387,175.1,380.2,170.9,372.2z"/>
		<path style="fill:#FFFFFF;" d="M249.9,324.7l-48.8-48.8l0,0c-1.6-1.6-3.7-2.5-5.9-2.5s-4.3,0.9-5.9,2.5c-1.6,1.6-2.5,3.7-2.5,5.9
			c0,2.2,0.9,4.3,2.5,5.9l2.2,2.2c0.2,0.1,0.3,0.3,0.5,0.5c0.2,0.3,0.5,0.5,0.7,0.8l0,0l18.9,18.9l0.1,0.1c0.5,0.5,1,1,1.5,1.5
			c7,6.8,14.3,13.9,21.6,21.6c0.1,0.1,0.2,0.2,0.3,0.3l2.9,2.9c0.8,0.8,1.7,1.4,2.7,1.8c1,0.4,2.1,0.6,3.2,0.6
			c2.2,0,4.3-0.9,5.9-2.5C253.1,333.3,253.1,327.9,249.9,324.7L249.9,324.7z"/>
		<polygon style="fill:#FFFFFF;" points="211.9,271.4 254.4,313.9 274.5,300.5 225.3,251.3 		"/>
		<path style="fill:#FFFFFF;" d="M410.9,114.9c-6.4-6.4-16.4-6.8-23.3-1.1L232.5,243.1l50.2,50.2L412,138.1
			C417.7,131.2,417.3,121.2,410.9,114.9z"/>
	</g>
</g>
<g id="Layer_1_1_">
</g>
</svg>
